<svg width="40" height="40" viewBox="0 0 40 40" fill="none" xmlns="http://www.w3.org/2000/svg">
<path d="M14.8809 15.6H25.0409V29.12H14.8809V15.6Z" fill="#FBC791"/>
<path d="M27.6004 11.76C27.6004 16.4 24.2404 22.32 20.0004 22.32C15.8404 22.32 12.4004 16.4 12.4004 11.76C12.4004 7.12 15.7604 4.56 20.0004 4.56C24.1604 4.56 27.6004 7.12 27.6004 11.76Z" fill="#FFE0B2"/>
<path d="M28.6627 13.9503C28.9165 13.012 28.6381 12.1205 28.0409 11.959C27.4438 11.7976 26.7541 12.4273 26.5004 13.3657C26.2467 14.304 26.5251 15.1955 27.1222 15.357C27.7193 15.5184 28.409 14.8887 28.6627 13.9503Z" fill="#FFE0B2"/>
<path d="M13.5233 13.4223C13.2696 12.484 12.5799 11.8542 11.9827 12.0157C11.3856 12.1771 11.1072 13.0687 11.3609 14.007C11.6146 14.9453 12.3044 15.5751 12.9015 15.4137C13.4986 15.2522 13.777 14.3607 13.5233 13.4223Z" fill="#FFE0B2"/>
<path d="M12.8007 14.72C12.8007 14.72 9.60066 6.8 15.4407 2.48001C21.2807 -1.83999 25.6007 3.52001 25.6007 3.52001C25.6007 3.52001 30.8007 3.92001 27.2007 14.72C27.2007 14.72 27.4407 8.8 24.7207 6.48001C24.7207 6.48001 23.7607 7.84 17.2007 8.56C11.6007 9.12 12.8007 14.72 12.8007 14.72Z" fill="#525252"/>
<path d="M26.1615 25.2V22C25.4415 21.92 24.9615 21.92 24.9615 21.92L20.0015 25.76L15.1215 21.92C15.1215 21.92 14.5615 21.92 13.6815 22.08V25.36H11.5215V38.24H27.0415V25.2H26.1615Z" fill="#56B3E5"/>
<path d="M22 37.92L20.72 28.16H19.28L18 37.92H22Z" fill="#676767"/>
<path d="M25.1211 19.12L26.8811 22.08L22.7211 28.08L20.0011 25.68C20.0011 25.76 23.4411 22.8 25.1211 19.12ZM14.8811 19.12L13.1211 22.08L17.2811 28.08L20.0011 25.68C20.0011 25.76 16.5611 22.8 14.8811 19.12Z" fill="#98D0F1"/>
<path d="M20.7203 28.16L21.6803 27.28L20.0003 25.76L18.3203 27.28L19.2803 28.16H20.7203Z" fill="#525252"/>
<path d="M26.8809 22.16L26.0009 23.44L20.0009 36.88L14.0009 23.44L13.1209 22.16C9.68094 22.96 2.96094 26.72 2.96094 31.28V37.6C2.96094 38.48 3.68094 39.2 4.56094 39.2H35.5209C36.4009 39.2 37.1209 38.48 37.1209 37.6V31.28C37.0409 26.64 30.3209 22.96 26.8809 22.16Z" fill="#E6E6E5"/>
<path d="M27.0409 27.12C26.5609 28.24 26.4809 29.6 26.7209 30.96C26.8809 31.84 27.2009 32.64 27.6009 33.36V33.44L28.3209 33.28L28.2409 33.2C27.8409 32.48 27.5209 31.68 27.3609 30.88C26.8809 28.32 27.7609 26.08 29.2809 25.84H29.5209C30.9609 25.76 32.4809 27.52 32.8809 29.92C33.0409 30.72 33.0409 31.6 32.8809 32.4V32.48L33.6009 32.32V32.24C33.7609 31.44 33.6809 30.56 33.5209 29.68C33.0409 26.96 31.2009 24.96 29.4409 25.04H29.2809C29.0409 24.48 28.4809 23.36 27.8409 22.32C27.5209 22.24 27.2009 22.08 26.8809 22.08L26.8009 22.16C27.6009 23.2 28.2409 24.56 28.5609 25.28C27.9209 25.6 27.4409 26.24 27.0409 27.12Z" fill="#CDCCCC"/>
<path d="M27.8411 34.16C28.2387 34.16 28.5611 33.8376 28.5611 33.44C28.5611 33.0424 28.2387 32.72 27.8411 32.72C27.4434 32.72 27.1211 33.0424 27.1211 33.44C27.1211 33.8376 27.4434 34.16 27.8411 34.16Z" fill="#676767"/>
<path d="M33.2805 33.2C33.6782 33.2 34.0005 32.8777 34.0005 32.48C34.0005 32.0824 33.6782 31.76 33.2805 31.76C32.8829 31.76 32.5605 32.0824 32.5605 32.48C32.5605 32.8777 32.8829 33.2 33.2805 33.2Z" fill="#676767"/>
<path d="M8.72 32.32C9.2 26.88 11.28 24.4 12.96 22.16C12.64 22.24 12.24 22.4 11.84 22.48C10.16 24.88 8.48 27.2 8 32.24L8.72 32.32Z" fill="#CDCCCC"/>
<path d="M8.3207 33.92C9.20436 33.92 9.9207 33.2037 9.9207 32.32C9.9207 31.4363 9.20436 30.72 8.3207 30.72C7.43705 30.72 6.7207 31.4363 6.7207 32.32C6.7207 33.2037 7.43705 33.92 8.3207 33.92Z" fill="#CDCCCC"/>
<path d="M8.32148 33.12C8.76331 33.12 9.12148 32.7618 9.12148 32.32C9.12148 31.8782 8.76331 31.52 8.32148 31.52C7.87966 31.52 7.52148 31.8782 7.52148 32.32C7.52148 32.7618 7.87966 33.12 8.32148 33.12Z" fill="#B4B4B4"/>
</svg>
